<?xml version="1.0" standalone="no"?>
<!DOCTYPE svg PUBLIC "-//W3C//DTD SVG 1.0//EN" "http://www.w3.org/TR/2001/REC-SVG-20010904/DTD/svg10.dtd">
<svg xmlns="http://www.w3.org/2000/svg" xmlns:xlink="http://www.w3.org/1999/xlink" id="body_1" width="110" height="107">

<g transform="matrix(0.1074219 0 0 0.1393229 0 0)">
	<g transform="matrix(1.400522 0 0 1.400522 128 0)">
	</g>
    <path transform="matrix(1.400522 0 0 1.400522 128 0)"  d="M406.304 0L142.084 0C 125.635 0 112.153 13.486 112.153 29.909L112.153 29.909L112.153 518.457C 112.153 534.88 125.639 548.366 142.084 548.366L142.084 548.366L406.303 548.366C 422.726 548.366 436.212 534.906 436.212 518.457L436.212 518.457L436.212 29.909C 436.213 13.486 422.753 0 406.304 0zM274.173 518.414C 259.043 518.414 246.756 506.131 246.756 490.997C 246.756 475.863 259.039 463.58 274.173 463.58C 289.303 463.58 301.59 475.863 301.59 490.997C 301.59 506.131 289.302 518.414 274.173 518.414zM401.925 433.697L146.463 433.697L146.463 67.277L401.926 67.277L401.926 433.697zM254.829 176.136L174.443 176.136L174.443 110.693L254.829 110.693L254.829 176.136zM363.264 176.136L282.856 176.136L282.856 110.693L363.264 110.693L363.264 176.136zM254.829 281.655L174.443 281.655L174.443 216.238L254.829 216.238L254.829 281.655zM363.264 281.655L282.856 281.655L282.856 216.238L363.264 216.238L363.264 281.655zM254.829 389.221L174.443 389.221L174.443 323.804L254.829 323.804L254.829 389.221zM363.264 389.221L282.856 389.221L282.856 323.804L363.264 323.804L363.264 389.221z" stroke="none" fill="#010002" fill-rule="nonzero" />
</g>
</svg>