<?xml version="1.0" standalone="no"?>
<!DOCTYPE svg PUBLIC "-//W3C//DTD SVG 1.0//EN" "http://www.w3.org/TR/2001/REC-SVG-20010904/DTD/svg10.dtd">
<svg xmlns="http://www.w3.org/2000/svg" xmlns:xlink="http://www.w3.org/1999/xlink" id="body_1" width="110" height="107">

<g transform="matrix(0.1074219 0 0 0.1393229 0 0)">
	<g transform="matrix(3.63969 0 0 3.63969 128 0)">
	</g>
    <path transform="matrix(3.63969 0 0 3.63969 128 0)"  d="M101.386 109.648C 94.491 102.754 86.417 97.47501 77.626 93.965L77.626 93.965L115.833 40.78101L191.176 0.02800751L211.007 19.85901L170.253 95.20001L117.04 133.427C 113.596 124.765 108.384 116.648 101.386 109.648zM24.922 210.98C 56.867 210.98 79.478 205.962 88.59 196.851C 109.099 176.339 109.099 142.96 88.589 122.444C 78.653 112.509 65.43999 107.037 51.387 107.037C 37.333 107.037 24.12 112.51 14.182 122.448C 0.121995 136.508 -1.464005 180.802 0.9009953 210.071C 6.613 210.497 15.209 210.98 24.922 210.98z" stroke="none" fill="#000000" fill-rule="nonzero" />
</g>
</svg>