<?xml version="1.0" encoding="iso-8859-1"?>
<!-- Generator: Adobe Illustrator 18.0.0, SVG Export Plug-In . SVG Version: 6.00 Build 0)  -->
<!DOCTYPE svg PUBLIC "-//W3C//DTD SVG 1.1//EN" "http://www.w3.org/Graphics/SVG/1.1/DTD/svg11.dtd">
<svg version="1.1" id="Capa_1" xmlns="http://www.w3.org/2000/svg" xmlns:xlink="http://www.w3.org/1999/xlink" x="0px" y="0px"
	 viewBox="0 0 211.007 211.007" style="enable-background:new 0 0 211.007 211.007;" xml:space="preserve">
<path d="M101.386,109.648c-6.895-6.894-14.969-12.173-23.76-15.683l38.207-53.184l75.343-40.753l19.831,19.831l-40.754,75.341
	l-53.213,38.227C113.596,124.765,108.384,116.648,101.386,109.648z M24.922,210.98c31.945,0,54.556-5.018,63.668-14.129
	c20.509-20.512,20.509-53.891-0.001-74.407c-9.936-9.935-23.149-15.407-37.202-15.407c-14.054,0-27.267,5.473-37.205,15.411
	c-14.06,14.06-15.646,58.354-13.281,87.623C6.613,210.497,15.209,210.98,24.922,210.98z"/>
<g>
</g>
<g>
</g>
<g>
</g>
<g>
</g>
<g>
</g>
<g>
</g>
<g>
</g>
<g>
</g>
<g>
</g>
<g>
</g>
<g>
</g>
<g>
</g>
<g>
</g>
<g>
</g>
<g>
</g>
</svg>
