<?xml version="1.0" standalone="no"?>
<!DOCTYPE svg PUBLIC "-//W3C//DTD SVG 1.0//EN" "http://www.w3.org/TR/2001/REC-SVG-20010904/DTD/svg10.dtd">
<svg xmlns="http://www.w3.org/2000/svg" xmlns:xlink="http://www.w3.org/1999/xlink" id="body_1" width="110" height="107">

<g transform="matrix(4.583333 0 0 4.458333 0 0)">
	<g transform="matrix(1 0 0 1 0 0)">
	</g>
    <path transform="matrix(1 0 0 1 0 0)"  d="M8.065618 18.94321L14.56562 4.443208C 14.73505 4.065234 15.17882 3.896182 15.55679 4.065618C 15.90327 4.220935 16.07419 4.606762 15.96976 4.961125L15.96976 4.961125L15.93438 5.056792L9.434382 19.55679C 9.264945 19.93476 8.821182 20.10382 8.443208 19.93438C 8.096732 19.77907 7.925808 19.39324 8.030235 19.03888L8.030235 19.03888L8.065618 18.94321L14.56562 4.443208L8.065618 18.94321zM2.21967 11.46967L6.46967 7.21967C 6.762563 6.926777 7.237437 6.926777 7.53033 7.21967C 7.796597 7.485937 7.820803 7.9026 7.602948 8.196212L7.602948 8.196212L7.53033 8.28033L3.81066 12L7.53033 15.71967C 7.823223 16.01256 7.823223 16.48744 7.53033 16.78033C 7.264063 17.0466 6.8474 17.0708 6.553788 16.85295L6.553788 16.85295L6.46967 16.78033L2.21967 12.53033C 1.953403 12.26406 1.929197 11.8474 2.147052 11.55379L2.147052 11.55379L2.21967 11.46967L6.46967 7.21967L2.21967 11.46967zM16.46967 7.21967C 16.73594 6.953403 17.1526 6.929197 17.44621 7.147052L17.44621 7.147052L17.53033 7.21967L21.78033 11.46967C 22.0466 11.73594 22.0708 12.1526 21.85295 12.44621L21.85295 12.44621L21.78033 12.53033L17.53033 16.78033C 17.23744 17.07322 16.76256 17.07322 16.46967 16.78033C 16.2034 16.51406 16.1792 16.0974 16.39705 15.80379L16.39705 15.80379L16.46967 15.71967L20.18934 12L16.46967 8.28033C 16.17678 7.987437 16.17678 7.512563 16.46967 7.21967z" stroke="none" fill="#212121" fill-rule="nonzero" />
</g>
</svg>