<?xml version="1.0" standalone="no"?>
<!DOCTYPE svg PUBLIC "-//W3C//DTD SVG 1.0//EN" "http://www.w3.org/TR/2001/REC-SVG-20010904/DTD/svg10.dtd">
<svg xmlns="http://www.w3.org/2000/svg" xmlns:xlink="http://www.w3.org/1999/xlink" id="body_1" width="110" height="107">

<g transform="matrix(0.1074219 0 0 0.1393229 0 0)">
	<g transform="matrix(1.567347 0 0 1.567347 128 0)">
	</g>
    <path transform="matrix(1.567347 0 0 1.567347 128 0)"  d="M295.2 257.8L251.4 295C 247.9 297.9 242.8 297.9 239.4 295L239.4 295L195.6 257.9L16.7 409.1L473.3 409.1L295.2 257.8z" stroke="none" fill="#000000" fill-rule="nonzero" />
	<g transform="matrix(1.567347 0 0 1.567347 128 0)">
	</g>
    <path transform="matrix(1.567347 0 0 1.567347 128 0)"  d="M0 92.2L0 397.8L180.1 245L0 92.2" stroke="none" fill="#000000" fill-rule="nonzero" />
	<g transform="matrix(1.567347 0 0 1.567347 128 0)">
	</g>
    <path transform="matrix(1.567347 0 0 1.567347 128 0)"  d="M16.7 80.9L245 274.6L473.3 80.9L16.7 80.9" stroke="none" fill="#000000" fill-rule="nonzero" />
	<g transform="matrix(1.567347 0 0 1.567347 128 0)">
	</g>
    <path transform="matrix(1.567347 0 0 1.567347 128 0)"  d="M309.9 245L490 397.8L490 92.2L309.9 245" stroke="none" fill="#000000" fill-rule="nonzero" />
</g>
</svg>