<?xml version="1.0" standalone="no"?>
<!DOCTYPE svg PUBLIC "-//W3C//DTD SVG 1.0//EN" "http://www.w3.org/TR/2001/REC-SVG-20010904/DTD/svg10.dtd">
<svg xmlns="http://www.w3.org/2000/svg" xmlns:xlink="http://www.w3.org/1999/xlink" id="body_1" width="24" height="24">

<g transform="matrix(0.0234375 0 0 0.03125 0 0)">
	<g transform="matrix(15.80084 0 0 15.80084 128 0)">
	</g>
    <path transform="matrix(15.80084 0 0 15.80084 128 0)"  d="M34.094 8.688L38.85 8.688L38.85 0.005L30.207 0.005C 29.486 -0.025 20.697 -0.193 18.419 8.494C 18.386 8.585 17.658 10.651 17.658 15.477L17.658 15.477L9.755003 15.501L9.755003 24.608L17.668 24.585L17.668 48.606L29.755 48.606L29.755 24.606L37.755 24.606L37.755 15.475L29.755 15.475L29.755 12.602C 29.755 10.816 30.508 8.688 34.094 8.688zM35.755 17.474L35.755 22.605L27.755 22.605L27.755 46.605L19.668 46.605L19.668 22.579L11.755 22.602L11.755 17.495L19.689 17.472L19.668 16.455C 19.564 11.343 20.293 9.193 20.326 9.09C 22.292 1.608 29.799 1.984 30.121 2.004L30.121 2.004L36.85 2.006L36.85 6.689L34.094 6.689C 29.421 6.689 27.756 9.743 27.756 12.601L27.756 12.601L27.756 17.474L35.755 17.474z" stroke="none" fill="#000000" fill-rule="nonzero" />
</g>
</svg>