<?xml version="1.0" encoding="UTF-8"?>
<svg xmlns="http://www.w3.org/2000/svg" xmlns:xlink="http://www.w3.org/1999/xlink" width="24pt" height="24pt" viewBox="0 0 24 24" version="1.1">
<g id="surface1">
<path style=" stroke:none;fill-rule:nonzero;fill:rgb(0%,0%,0%);fill-opacity:1;" d="M 22.675781 0 L 1.324219 0 C 0.59375 0 0 0.59375 0 1.324219 L 0 22.675781 C 0 23.40625 0.59375 24 1.324219 24 L 12.820312 24 L 12.820312 14.707031 L 9.691406 14.707031 L 9.691406 11.085938 L 12.820312 11.085938 L 12.820312 8.414062 C 12.820312 5.3125 14.714844 3.625 17.480469 3.625 C 18.804688 3.625 19.941406 3.722656 20.273438 3.769531 L 20.273438 7.007812 L 18.355469 7.007812 C 16.851562 7.007812 16.5625 7.722656 16.5625 8.773438 L 16.5625 11.085938 L 20.148438 11.085938 L 19.679688 14.707031 L 16.5625 14.707031 L 16.5625 24 L 22.675781 24 C 23.40625 24 24 23.40625 24 22.675781 L 24 1.324219 C 24 0.59375 23.40625 0 22.675781 0 Z M 22.675781 0 "/>
</g>
</svg>
