<?xml version="1.0" encoding="UTF-8"?>
<svg xmlns="http://www.w3.org/2000/svg" xmlns:xlink="http://www.w3.org/1999/xlink" width="24pt" height="24pt" viewBox="0 0 24 24" version="1.1">
<g id="surface1">
<path style=" stroke:none;fill-rule:nonzero;fill:rgb(0%,0%,0%);fill-opacity:1;" d="M 12 0 C 5.375 0 0 5.371094 0 12 C 0 17.300781 3.4375 21.800781 8.207031 23.386719 C 8.804688 23.496094 9 23.125 9 22.808594 L 9 20.574219 C 5.660156 21.300781 4.96875 19.160156 4.96875 19.160156 C 4.421875 17.773438 3.632812 17.402344 3.632812 17.402344 C 2.546875 16.660156 3.71875 16.675781 3.71875 16.675781 C 4.921875 16.757812 5.554688 17.910156 5.554688 17.910156 C 6.625 19.746094 8.363281 19.214844 9.046875 18.910156 C 9.15625 18.132812 9.464844 17.605469 9.808594 17.304688 C 7.144531 17 4.34375 15.972656 4.34375 11.375 C 4.34375 10.0625 4.8125 8.992188 5.578125 8.152344 C 5.453125 7.851562 5.042969 6.628906 5.695312 4.976562 C 5.695312 4.976562 6.703125 4.65625 8.996094 6.207031 C 9.953125 5.941406 10.980469 5.808594 12 5.804688 C 13.019531 5.808594 14.046875 5.941406 15.007812 6.207031 C 17.296875 4.65625 18.304688 4.976562 18.304688 4.976562 C 18.957031 6.628906 18.546875 7.851562 18.421875 8.152344 C 19.191406 8.992188 19.65625 10.0625 19.65625 11.375 C 19.65625 15.984375 16.847656 16.996094 14.175781 17.296875 C 14.605469 17.667969 15 18.398438 15 19.515625 L 15 22.808594 C 15 23.128906 15.191406 23.503906 15.800781 23.386719 C 20.566406 21.796875 24 17.300781 24 12 C 24 5.371094 18.628906 0 12 0 Z M 12 0 "/>
</g>
</svg>
