<?xml version="1.0" encoding="UTF-8"?>
<svg xmlns="http://www.w3.org/2000/svg" xmlns:xlink="http://www.w3.org/1999/xlink" width="24pt" height="24pt" viewBox="0 0 24 24" version="1.1">
<g id="surface1">
<path style=" stroke:none;fill-rule:nonzero;fill:rgb(0%,0%,0%);fill-opacity:1;" d="M 24 4.558594 C 23.117188 4.949219 22.167969 5.214844 21.171875 5.332031 C 22.1875 4.722656 22.96875 3.757812 23.335938 2.609375 C 22.386719 3.171875 21.332031 3.582031 20.210938 3.804688 C 19.3125 2.847656 18.03125 2.246094 16.617188 2.246094 C 13.4375 2.246094 11.101562 5.214844 11.820312 8.292969 C 7.726562 8.089844 4.101562 6.128906 1.671875 3.148438 C 0.382812 5.363281 1.003906 8.257812 3.195312 9.722656 C 2.386719 9.695312 1.628906 9.476562 0.964844 9.105469 C 0.910156 11.386719 2.546875 13.523438 4.914062 13.996094 C 4.222656 14.183594 3.460938 14.230469 2.691406 14.082031 C 3.316406 16.035156 5.132812 17.460938 7.289062 17.5 C 5.21875 19.121094 2.613281 19.847656 0 19.539062 C 2.179688 20.9375 4.769531 21.753906 7.546875 21.753906 C 16.691406 21.753906 21.855469 14.03125 21.542969 7.105469 C 22.503906 6.410156 23.339844 5.542969 24 4.558594 Z M 24 4.558594 "/>
</g>
</svg>
