<?xml version="1.0" encoding="UTF-8"?>
<svg xmlns="http://www.w3.org/2000/svg" xmlns:xlink="http://www.w3.org/1999/xlink" width="24pt" height="24pt" viewBox="0 0 24 24" version="1.1">
<g id="surface1">
<path style=" stroke:none;fill-rule:nonzero;fill:rgb(0%,0%,0%);fill-opacity:1;" d="M 12 2.164062 C 15.203125 2.164062 15.585938 2.175781 16.851562 2.234375 C 20.101562 2.382812 21.621094 3.925781 21.769531 7.152344 C 21.828125 8.417969 21.839844 8.796875 21.839844 12 C 21.839844 15.207031 21.824219 15.585938 21.769531 16.851562 C 21.621094 20.074219 20.105469 21.621094 16.851562 21.769531 C 15.585938 21.828125 15.207031 21.839844 12 21.839844 C 8.796875 21.839844 8.414062 21.828125 7.152344 21.769531 C 3.890625 21.621094 2.378906 20.070312 2.230469 16.847656 C 2.175781 15.585938 2.160156 15.203125 2.160156 12 C 2.160156 8.796875 2.175781 8.417969 2.230469 7.152344 C 2.382812 3.925781 3.894531 2.378906 7.152344 2.230469 C 8.417969 2.175781 8.796875 2.164062 12 2.164062 Z M 12 0 C 8.742188 0 8.332031 0.015625 7.054688 0.0703125 C 2.695312 0.273438 0.273438 2.691406 0.0742188 7.050781 C 0.015625 8.332031 0 8.742188 0 12 C 0 15.257812 0.015625 15.667969 0.0703125 16.949219 C 0.273438 21.304688 2.691406 23.726562 7.050781 23.929688 C 8.332031 23.984375 8.742188 24 12 24 C 15.257812 24 15.667969 23.984375 16.949219 23.929688 C 21.300781 23.726562 23.730469 21.308594 23.925781 16.949219 C 23.984375 15.667969 24 15.257812 24 12 C 24 8.742188 23.984375 8.332031 23.929688 7.054688 C 23.730469 2.699219 21.3125 0.273438 16.949219 0.0742188 C 15.667969 0.015625 15.257812 0 12 0 Z M 12 5.839844 C 8.597656 5.839844 5.839844 8.597656 5.839844 12 C 5.839844 15.402344 8.597656 18.164062 12 18.164062 C 15.402344 18.164062 18.160156 15.402344 18.160156 12 C 18.160156 8.597656 15.402344 5.839844 12 5.839844 Z M 12 16 C 9.789062 16 8 14.210938 8 12 C 8 9.789062 9.789062 8 12 8 C 14.210938 8 16 9.789062 16 12 C 16 14.210938 14.210938 16 12 16 Z M 18.40625 4.15625 C 17.609375 4.15625 16.964844 4.800781 16.964844 5.59375 C 16.964844 6.390625 17.609375 7.035156 18.40625 7.035156 C 19.199219 7.035156 19.84375 6.390625 19.84375 5.59375 C 19.84375 4.800781 19.199219 4.15625 18.40625 4.15625 Z M 18.40625 4.15625 "/>
</g>
</svg>
