<?xml version="1.0" encoding="UTF-8"?>
<svg xmlns="http://www.w3.org/2000/svg" xmlns:xlink="http://www.w3.org/1999/xlink" width="24pt" height="24pt" viewBox="0 0 24 24" version="1.1">
<g id="surface1">
<path style=" stroke:none;fill-rule:nonzero;fill:rgb(0%,0%,0%);fill-opacity:1;" d="M 4.980469 3.5 C 4.980469 4.882812 3.871094 6 2.5 6 C 1.128906 6 0.0195312 4.882812 0.0195312 3.5 C 0.0195312 2.121094 1.128906 1 2.5 1 C 3.871094 1 4.980469 2.121094 4.980469 3.5 Z M 5 8 L 0 8 L 0 24 L 5 24 Z M 12.980469 8 L 8.015625 8 L 8.015625 24 L 12.984375 24 L 12.984375 15.601562 C 12.984375 10.929688 19.011719 10.550781 19.011719 15.601562 L 19.011719 24 L 24 24 L 24 13.867188 C 24 5.988281 15.078125 6.277344 12.980469 10.15625 Z M 12.980469 8 "/>
</g>
</svg>
