<?xml version="1.0" standalone="no"?>
<!DOCTYPE svg PUBLIC "-//W3C//DTD SVG 1.0//EN" "http://www.w3.org/TR/2001/REC-SVG-20010904/DTD/svg10.dtd">
<svg xmlns="http://www.w3.org/2000/svg" xmlns:xlink="http://www.w3.org/1999/xlink" id="body_1" width="110" height="107">

<g transform="matrix(0.1074219 0 0 0.1393229 0 0)">
	<g transform="matrix(2.621161 0 0 2.621161 128 0)">
	</g>
    <path transform="matrix(2.621161 0 0 2.621161 128 0)"  d="M0 83.253L0 270.511C 0 279.558 7.334 286.892 16.381 286.892L16.381 286.892L40 286.892L40 66.873L16.381 66.873C 7.334 66.873 0 74.206 0 83.253z" stroke="none" fill="#000000" fill-rule="nonzero" />
	<g transform="matrix(2.621161 0 0 2.621161 128 0)">
	</g>
    <path transform="matrix(2.621161 0 0 2.621161 128 0)"  d="M276.619 66.873L253 66.873L253 286.892L276.619 286.892C 285.666 286.892 293 279.558 293 270.511L293 270.511L293 83.253C 293 74.206 285.666 66.873 276.619 66.873z" stroke="none" fill="#000000" fill-rule="nonzero" />
	<g transform="matrix(2.621161 0 0 2.621161 128 0)">
	</g>
    <path transform="matrix(2.621161 0 0 2.621161 128 0)"  d="M204.176 13.608C 204.176 9.466 200.819 6.108 196.676 6.108L196.676 6.108L96.324 6.108C 92.181 6.108 88.824 9.466 88.824 13.608L88.824 13.608L88.824 66.872L70.646 66.872L70.646 286.891L222.354 286.891L222.354 66.873L204.176 66.873L204.176 13.608zM103.824 21.108L189.176 21.108L189.176 59.372L103.824 59.372L103.824 21.108zM189.334 234.981L155.028 266.129C 153.644 267.385 151.846 268.076 149.986 268.076C 149.866 268.076 149.746 268.073 149.625 268.067C 147.638 267.971 145.77 267.09 144.434 265.617L144.434 265.617L128.301 247.848C 125.517 244.782 125.745 240.038 128.812 237.254L128.812 237.254L163.117 206.105C 166.183 203.321 170.927 203.549 173.712 206.616L173.712 206.616L189.846 224.384C 191.183 225.857 191.88 227.8 191.785 229.787C 191.688 231.777 190.807 233.644 189.334 234.981z" stroke="none" fill="#000000" fill-rule="nonzero" />
	<g transform="matrix(2.621161 0 0 2.621161 128 0)">
	</g>
    <path transform="matrix(2.621161 0 0 2.621161 128 0)"  d="M150.5091 249.973L144.4593 243.3094L167.6619 222.244L173.7117 228.9076L150.5091 249.973z" stroke="none" fill="#000000" fill-rule="nonzero" />
</g>
</svg>