<?xml version="1.0" standalone="no"?>
<!DOCTYPE svg PUBLIC "-//W3C//DTD SVG 1.0//EN" "http://www.w3.org/TR/2001/REC-SVG-20010904/DTD/svg10.dtd">
<svg xmlns="http://www.w3.org/2000/svg" xmlns:xlink="http://www.w3.org/1999/xlink" id="body_1" width="110" height="107">

<g transform="matrix(0.1074219 0 0 0.1393229 0 0)">
	<g transform="matrix(1.5 0 0 1.5 128 0)">
	</g>
    <path transform="matrix(1.5 0 0 1.5 128 0)"  d="M480.6 11L31.39999 11C 20.09999 11 10.99999 20.1 10.99999 31.4L10.99999 31.4L10.99999 480.6C 10.99999 491.9 20.09999 501 31.39999 501L31.39999 501L480.6 501C 491.9 501 501 491.9 501 480.6L501 480.6L501 31.39999C 501 20.09999 491.9 10.99999 480.6 10.99999L480.6 10.99999L480.6 11zM175.2 51.8L336.8 51.8L336.8 93.5L175.2 93.5L175.2 51.8zM51.80001 51.8L134.3 51.8L134.3 93.5L51.80002 93.5L51.80002 51.8zM134.3 460.2L51.80002 460.2L51.80002 418.5L134.3 418.5L134.3 460.2zM336.8 460.2L175.2 460.2L175.2 418.5L336.8 418.5L336.8 460.2zM460.2 460.2L377.7 460.2L377.7 418.5L460.2 418.5L460.2 460.2zM460.2 377.7L51.80002 377.7L51.80002 134.3L460.1 134.3L460.1 377.7zM460.3 93.49997L377.8 93.49997L377.8 51.79997L460.3 51.79997L460.3 93.49997z" stroke="none" fill="#000000" fill-rule="nonzero" />
	<g transform="matrix(1.5 0 0 1.5 128 0)">
	</g>
    <path transform="matrix(1.5 0 0 1.5 128 0)"  d="M213.4 348.3L322 272.7C 327.5 268.9 330.8 262.6 330.8 255.9C 330.8 249.2 327.5 243 322 239.1L322 239.1L213.4 163.5C 204.7 156.2 182.4 158.8 181.3 180.3L181.3 180.3L181.3 331.5C 182.9 352.1 202.7 355.8 213.4 348.3zM222.1 219.5L274.5 256L222.1 292.5L222.1 219.5z" stroke="none" fill="#000000" fill-rule="nonzero" />
</g>
</svg>