<?xml version="1.0" standalone="no"?>
<!DOCTYPE svg PUBLIC "-//W3C//DTD SVG 1.0//EN" "http://www.w3.org/TR/2001/REC-SVG-20010904/DTD/svg10.dtd">
<svg xmlns="http://www.w3.org/2000/svg" xmlns:xlink="http://www.w3.org/1999/xlink" id="body_1" width="110" height="107">

<g transform="matrix(0.1074219 0 0 0.1393229 0 0)">
	<g transform="matrix(1.5 0 0 1.5 128 0)">
	</g>
    <path transform="matrix(1.5 0 0 1.5 128 0)"  d="M389.376 0L122.624 0C 116.992 0 112.425 4.566 112.425 10.199L112.425 10.199L112.425 501.801C 112.425 507.434 116.992 512 122.624 512L122.624 512L389.376 512C 395.008 512 399.575 507.434 399.575 501.801L399.575 501.801L399.575 10.199C 399.575 4.566 395.008 0 389.376 0zM297.926 491.602L266.199 491.602L266.199 460.409C 266.199 454.776 261.632 450.21 256 450.21C 250.368 450.21 245.801 454.776 245.801 460.409L245.801 460.409L245.801 491.602L214.075 491.602L214.075 406.219L297.926 406.219L297.926 491.602zM379.178 491.602L379.177 491.602L318.323 491.602L318.323 396.02C 318.323 390.387 313.756 385.821 308.124 385.821L308.124 385.821L203.876 385.821C 198.244 385.821 193.677 390.387 193.677 396.02L193.677 396.02L193.677 491.602L132.823 491.602L132.823 20.398L379.178 20.398L379.178 491.602z" stroke="none" fill="#000000" fill-rule="nonzero" />
	<g transform="matrix(1.5 0 0 1.5 128 0)">
	</g>
    <path transform="matrix(1.5 0 0 1.5 128 0)"  d="M230.96 43.436L167.593 43.436C 161.961 43.436 157.394 48.002 157.394 53.635L157.394 53.635L157.394 117.002C 157.394 122.635 161.961 127.201 167.593 127.201L167.593 127.201L230.96 127.201C 236.592 127.201 241.159 122.635 241.159 117.002L241.159 117.002L241.159 53.636C 241.159 48.003 236.592 43.436 230.96 43.436zM220.761 106.803L177.793 106.803L177.793 63.835L220.761 63.835L220.761 106.803z" stroke="none" fill="#000000" fill-rule="nonzero" />
	<g transform="matrix(1.5 0 0 1.5 128 0)">
	</g>
    <path transform="matrix(1.5 0 0 1.5 128 0)"  d="M344.407 43.436L281.04 43.436C 275.408 43.436 270.841 48.002 270.841 53.635L270.841 53.635L270.841 117.002C 270.841 122.635 275.407 127.201 281.04 127.201L281.04 127.201L344.407 127.201C 350.039 127.201 354.606 122.635 354.606 117.002L354.606 117.002L354.606 53.636C 354.606 48.003 350.039 43.436 344.407 43.436zM334.208 106.803L291.24 106.803L291.24 63.835L334.208 63.835L334.208 106.803z" stroke="none" fill="#000000" fill-rule="nonzero" />
	<g transform="matrix(1.5 0 0 1.5 128 0)">
	</g>
    <path transform="matrix(1.5 0 0 1.5 128 0)"  d="M230.96 155.861L167.593 155.861C 161.961 155.861 157.394 160.427 157.394 166.06L157.394 166.06L157.394 229.427C 157.394 235.06 161.961 239.626 167.593 239.626L167.593 239.626L230.96 239.626C 236.592 239.626 241.159 235.06 241.159 229.427L241.159 229.427L241.159 166.06C 241.159 160.427 236.592 155.861 230.96 155.861zM220.761 219.228L177.793 219.228L177.793 176.26L220.761 176.26L220.761 219.228z" stroke="none" fill="#000000" fill-rule="nonzero" />
	<g transform="matrix(1.5 0 0 1.5 128 0)">
	</g>
    <path transform="matrix(1.5 0 0 1.5 128 0)"  d="M344.407 155.861L281.04 155.861C 275.408 155.861 270.841 160.427 270.841 166.06L270.841 166.06L270.841 229.427C 270.841 235.06 275.407 239.626 281.04 239.626L281.04 239.626L344.407 239.626C 350.039 239.626 354.606 235.06 354.606 229.427L354.606 229.427L354.606 166.06C 354.606 160.427 350.039 155.861 344.407 155.861zM334.208 219.228L291.24 219.228L291.24 176.26L334.208 176.26L334.208 219.228z" stroke="none" fill="#000000" fill-rule="nonzero" />
	<g transform="matrix(1.5 0 0 1.5 128 0)">
	</g>
    <path transform="matrix(1.5 0 0 1.5 128 0)"  d="M230.96 268.286L167.593 268.286C 161.961 268.286 157.394 272.852 157.394 278.485L157.394 278.485L157.394 341.852C 157.394 347.485 161.961 352.051 167.593 352.051L167.593 352.051L230.96 352.051C 236.592 352.051 241.159 347.485 241.159 341.852L241.159 341.852L241.159 278.485C 241.159 272.852 236.592 268.286 230.96 268.286zM220.761 331.653L177.793 331.653L177.793 288.685L220.761 288.685L220.761 331.653z" stroke="none" fill="#000000" fill-rule="nonzero" />
	<g transform="matrix(1.5 0 0 1.5 128 0)">
	</g>
    <path transform="matrix(1.5 0 0 1.5 128 0)"  d="M344.407 268.286L281.04 268.286C 275.408 268.286 270.841 272.852 270.841 278.485L270.841 278.485L270.841 341.852C 270.841 347.485 275.407 352.051 281.04 352.051L281.04 352.051L344.407 352.051C 350.039 352.051 354.606 347.485 354.606 341.852L354.606 341.852L354.606 278.485C 354.606 272.852 350.039 268.286 344.407 268.286zM334.208 331.653L291.24 331.653L291.24 288.685L334.208 288.685L334.208 331.653z" stroke="none" fill="#000000" fill-rule="nonzero" />
	<g transform="matrix(1.5 0 0 1.5 128 0)">
	</g>
    <path transform="matrix(1.5 0 0 1.5 128 0)"  d="M256 418.526C 250.368 418.526 245.801 423.092 245.801 428.725L245.801 428.725L245.801 429.747C 245.801 435.38 250.368 439.946 256 439.946C 261.632 439.946 266.199 435.38 266.199 429.747L266.199 429.747L266.199 428.725C 266.199 423.093 261.632 418.526 256 418.526z" stroke="none" fill="#000000" fill-rule="nonzero" />
</g>
</svg>