<?xml version="1.0" standalone="no"?>
<!DOCTYPE svg PUBLIC "-//W3C//DTD SVG 1.0//EN" "http://www.w3.org/TR/2001/REC-SVG-20010904/DTD/svg10.dtd">
<svg xmlns="http://www.w3.org/2000/svg" xmlns:xlink="http://www.w3.org/1999/xlink" id="body_1" width="110" height="107">

<g transform="matrix(0.1074219 0 0 0.1393229 0 0)">
	<g transform="matrix(1.5 0 0 1.5 128 0)">
	</g>
    <path transform="matrix(1.5 0 0 1.5 128 0)"  d="M362.654 0L149.347 0C 124.281 0 103.889 20.392 103.889 45.458L103.889 45.458L103.889 466.542L103.888 466.542C 103.888 491.608 124.28 512 149.346 512L149.346 512L362.653 512C 387.719 512 408.111 491.608 408.111 466.542L408.111 466.542L408.111 45.458C 408.111 20.392 387.719 0 362.654 0zM124.287 45.458C 124.287 31.64 135.529 20.399 149.347 20.399L149.347 20.399L362.653 20.399C 376.471 20.399 387.712 31.641 387.712 45.458L387.712 45.458L387.712 65.275L124.287 65.275L124.287 45.458zM124.287 85.673L387.713 85.673L387.713 426.326L124.287 426.326L124.287 85.673zM387.714 466.542C 387.714 480.36 376.471 491.601 362.654 491.601L362.654 491.601L149.347 491.601C 135.529 491.601 124.288 480.359 124.288 466.542L124.288 466.542L124.288 446.725L387.714 446.725L387.714 466.542z" stroke="none" fill="#000000" fill-rule="nonzero" />
	<g transform="matrix(1.5 0 0 1.5 128 0)">
	</g>
    <path transform="matrix(1.5 0 0 1.5 128 0)"  d="M293.738 33.657L289.658 33.657C 284.026 33.657 279.459 38.224 279.459 43.856C 279.459 49.488 284.026 54.055 289.658 54.055L289.658 54.055L293.738 54.055C 299.37 54.055 303.937 49.488 303.937 43.856C 303.937 38.224 299.37 33.657 293.738 33.657z" stroke="none" fill="#000000" fill-rule="nonzero" />
	<g transform="matrix(1.5 0 0 1.5 128 0)">
	</g>
    <path transform="matrix(1.5 0 0 1.5 128 0)"  d="M253.961 33.657L218.264 33.657C 212.631 33.657 208.065 38.224 208.065 43.856C 208.065 49.488 212.631 54.055 218.264 54.055L218.264 54.055L253.961 54.055C 259.593 54.055 264.16 49.488 264.16 43.856C 264.16 38.224 259.593 33.657 253.961 33.657z" stroke="none" fill="#000000" fill-rule="nonzero" />
	<g transform="matrix(1.5 0 0 1.5 128 0)">
	</g>
    <path transform="matrix(1.5 0 0 1.5 128 0)"  d="M267.73 459.984L244.272 459.984C 238.639 459.984 234.073 464.551 234.073 470.183C 234.073 475.815 238.639 480.382 244.272 480.382L244.272 480.382L267.73 480.382C 273.362 480.382 277.929 475.815 277.929 470.183C 277.929 464.551 273.362 459.984 267.73 459.984z" stroke="none" fill="#000000" fill-rule="nonzero" />
	<g transform="matrix(1.5 0 0 1.5 128 0)">
	</g>
    <path transform="matrix(1.5 0 0 1.5 128 0)"  d="M289.151 214.203C 299.294 205.099 305.688 191.899 305.688 177.23C 305.688 149.832 283.399 127.541 256 127.541C 228.601 127.541 206.312 149.83 206.312 177.23C 206.312 191.899 212.706 205.1 222.849 214.203C 205.706 223.603 194.057 241.822 194.057 262.713L194.057 262.713L194.057 277.54C 194.058 283.173 198.624 287.739 204.257 287.739L204.257 287.739L307.745 287.739C 313.377 287.739 317.944 283.172 317.944 277.54L317.944 277.54L317.944 262.713C 317.943 241.822 306.294 223.602 289.151 214.203zM256 147.939C 272.15 147.939 285.29 161.079 285.29 177.229C 285.29 193.379 272.15 206.518 256 206.518C 239.85 206.518 226.71 193.378 226.71 177.228C 226.71 161.078 239.85 147.939 256 147.939zM297.546 267.341L214.456 267.341L214.456 262.714L214.455 262.714C 214.455 243.477 230.106 227.826 249.343 227.826L249.343 227.826L262.658 227.826C 281.895 227.826 297.545 243.478 297.545 262.714L297.545 262.714L297.545 267.341z" stroke="none" fill="#000000" fill-rule="nonzero" />
	<g transform="matrix(1.5 0 0 1.5 128 0)">
	</g>
    <path transform="matrix(1.5 0 0 1.5 128 0)"  d="M177.467 317.246C 158.065 317.246 142.28 333.031 142.28 352.433C 142.28 371.835 158.065 387.62 177.467 387.62C 196.869 387.62 212.654 371.835 212.654 352.433C 212.654 333.031 196.869 317.246 177.467 317.246zM177.467 367.222C 169.313 367.222 162.678 360.587 162.678 352.433C 162.678 344.279 169.313 337.644 177.467 337.644C 185.621 337.644 192.256 344.279 192.256 352.433C 192.256 360.587 185.621 367.222 177.467 367.222z" stroke="none" fill="#000000" fill-rule="nonzero" />
	<g transform="matrix(1.5 0 0 1.5 128 0)">
	</g>
    <path transform="matrix(1.5 0 0 1.5 128 0)"  d="M334.534 317.246C 315.132 317.246 299.347 333.03 299.347 352.433C 299.347 371.835 315.132 387.62 334.534 387.62C 353.936 387.62 369.721 371.835 369.721 352.433C 369.721 333.031 353.936 317.246 334.534 317.246zM334.534 367.222C 326.38 367.222 319.745 360.587 319.745 352.433C 319.745 344.279 326.38 337.644 334.534 337.644C 342.688 337.644 349.323 344.279 349.323 352.433C 349.323 360.587 342.689 367.222 334.534 367.222z" stroke="none" fill="#000000" fill-rule="nonzero" />
	<g transform="matrix(1.5 0 0 1.5 128 0)">
	</g>
    <path transform="matrix(1.5 0 0 1.5 128 0)"  d="M245.9 352.541L248.165 350.276C 252.148 346.294 252.149 339.836 248.165 335.853C 244.182 331.872 237.724 331.872 233.741 335.853L233.741 335.853L224.264 345.33C 222.352 347.2419 221.277 349.8369 221.277 352.542C 221.277 355.2469 222.352 357.8419 224.264 359.754L224.264 359.754L233.741 369.231C 235.733 371.222 238.343 372.218 240.953 372.218C 243.563 372.218 246.174 371.222 248.165 369.231C 252.148 365.248 252.148 358.7899 248.165 354.806L248.165 354.806L245.9 352.541z" stroke="none" fill="#000000" fill-rule="nonzero" />
	<g transform="matrix(1.5 0 0 1.5 128 0)">
	</g>
    <path transform="matrix(1.5 0 0 1.5 128 0)"  d="M287.735 345.331L278.259 335.853C 274.275 331.871 267.819 331.871 263.834 335.853C 259.851 339.836 259.851 346.294 263.834 350.278L263.834 350.278L266.099 352.543L263.834 354.808C 259.851 358.791 259.851 365.249 263.834 369.233C 265.826 371.224 268.436 372.22 271.046 372.22C 273.657 372.22 276.266 371.224 278.258 369.233L278.258 369.233L287.735 359.756C 291.718 355.773 291.718 349.315 287.735 345.331z" stroke="none" fill="#000000" fill-rule="nonzero" />
</g>
</svg>