<?xml version="1.0" standalone="no"?>
<!DOCTYPE svg PUBLIC "-//W3C//DTD SVG 1.0//EN" "http://www.w3.org/TR/2001/REC-SVG-20010904/DTD/svg10.dtd">
<svg xmlns="http://www.w3.org/2000/svg" xmlns:xlink="http://www.w3.org/1999/xlink" id="body_1" width="24" height="24">

<g transform="matrix(0.0234375 0 0 0.03125 0 0)">
	<g transform="matrix(1.500003 0 0 1.500003 128 0)">
	</g>
    <path transform="matrix(1.500003 0 0 1.500003 128 0)"  d="M438.428 236.088C 438.111 224.517 432.427 214.168 423.795 207.364C 426.075 202.478 427.349 197.031 427.349 191.293C 427.349 170.265 410.241 153.157 389.213 153.157L389.213 153.157L345.01 153.157L345.237 99.799C 345.281 89.34799 341.244 79.513 333.869 72.10699C 326.494 64.701 316.677 60.62199 306.226 60.62199C 290.545 60.62199 276.439 69.97699 270.291 84.45399C 265.02 96.86199 254.951 115.286 241.171 137.732C 235.331 147.245 224.762 153.156 213.59 153.156L213.59 153.156L182.244 153.156L151.827 153.156L73.557 153.156L73.557 366.997L151.828 366.997L182.245 366.997L182.245 366.998L378.12 366.998C 399.148 366.998 416.256 349.889 416.256 328.861C 416.256 323.192 415.012 317.807 412.783 312.967C 421.649 305.977 427.35 295.144 427.35 283.006C 427.35 277.344 426.11 271.968 423.888 267.132C 425.201 266.095 426.455 264.963 427.642 263.743C 434.882 256.3 438.713 246.478 438.428 236.088zM151.827 336.58L103.974 336.58L103.974 183.574L151.827 183.574L151.827 336.58zM405.843 242.53C 404.993 243.403 403.145 244.868 400.309 244.868L400.309 244.868L389.216 244.868L358.823 244.868L358.823 275.285L389.216 275.285C 393.472 275.285 396.935 278.749 396.935 283.005C 396.935 287.261 393.473 290.724 389.216 290.724L389.216 290.724L378.122 290.724L358.824 290.724L358.824 321.141L378.122 321.141C 382.378 321.141 385.841 324.605 385.841 328.86C 385.841 333.116 382.379 336.58 378.122 336.58L378.122 336.58L182.244 336.58L182.244 183.574L213.59 183.574C 235.261 183.574 255.763 172.106 267.095 153.645C 277.245 137.111 290.897 113.749 298.289 96.345C 299.658 93.122 302.775 91.039 306.228 91.039C 308.531 91.039 310.692 91.937 312.318 93.569C 313.943 95.2 314.831 97.367 314.822 99.67L314.822 99.67L314.464 183.574L389.215 183.574C 393.471 183.574 396.934 187.038 396.934 191.293C 396.934 195.549 393.471 199.013 389.215 199.013L389.215 199.013L358.822 199.013L358.822 229.43L389.215 229.43L399.832 229.43C 404.236 229.43 407.912 232.79 408.025 236.922C 408.103 239.77 406.691 241.658 405.843 242.53z" stroke="none" fill="#000000" fill-rule="nonzero" />
	<g transform="matrix(1.500003 0 0 1.500003 128 0)">
	</g>
    <path transform="matrix(1.500003 0 0 1.500003 128 0)"  d="M0 10.015L0 427.745L201.339 427.745L256 501.984L310.661 427.745L512 427.745L512 10.015L0 10.015zM481.583 397.328L295.283 397.328L255.999 450.682L216.715 397.327L30.417 397.327L30.417 40.431L481.583 40.431L481.583 397.328z" stroke="none" fill="#000000" fill-rule="nonzero" />
</g>
</svg>