<?xml version="1.0" standalone="no"?>
<!DOCTYPE svg PUBLIC "-//W3C//DTD SVG 1.0//EN" "http://www.w3.org/TR/2001/REC-SVG-20010904/DTD/svg10.dtd">
<svg xmlns="http://www.w3.org/2000/svg" xmlns:xlink="http://www.w3.org/1999/xlink" id="body_1" width="24" height="24">

<g transform="matrix(0.0234375 0 0 0.03125 0 0)">
	<g transform="matrix(1.500003 0 0 1.500003 128 0)">
	</g>
    <path transform="matrix(1.500003 0 0 1.500003 128 0)"  d="M507.77 96.789C 503.85 92.12 497.867 89.831 492.001 90.431C 494.346 85.576 496.355 80.54 498.017 75.34C 500.296 68.213 497.894 60.294 492.047 55.641C 486.198 50.979 477.944 50.409 471.502 54.225C 456.744 62.978 440.903 69.512 424.3449 73.68C 403.3099 55.105 375.631 44.552 347.5249 44.552C 283.7089 44.552 231.7899 96.469 231.7899 160.283C 231.7899 160.997 231.7959 161.711 231.8089 162.425C 167.0079 153.632 106.8579 120.053 65.31493 69.093C 61.54993 64.47501 55.76093 61.994 49.84793 62.476C 43.922 62.94 38.597 66.283 35.6 71.42C 25.342 89.02299 19.92 109.147 19.92 129.619C 19.92 147.673 24.138 165.359 32.065 181.289C 30.745 181.682 29.463 182.225 28.247 182.923C 22.77 186.061 19.28 191.93 19.136 198.222C 19.123 198.773 19.122 199.324 19.122 199.881C 19.122 232.759 33.39 264.048 57.409 285.814C 53.568 290.536 52.337 296.971 54.203 302.79C 64.14899 333.843 86.869 359.055 115.905 372.516C 92.746 383.153 67.381 388.7 41.425 388.7C 34.339 388.7 27.221 388.284 20.278 387.462C 11.839 386.458 3.941999 391.347 1.076 399.352C -1.787 407.352 1.208 416.141 8.358 420.725C 56.03 451.291 111.151 467.447 167.762 467.447C 279.016 467.447 348.686 414.9 387.539 370.816C 435.877 315.98 463.599 243.37 463.599 171.605C 463.599 170.34 463.591 169.068 463.575 167.794C 481.151 153.866 496.403 137.314 508.961 118.529C 513.42 111.86 512.927 102.917 507.77 96.789zM447.131 154.728C 444.486 156.721 442.973 159.875 443.074 163.184C 443.16 165.983 443.203 168.817 443.203 171.609C 443.203 238.476 417.337 306.17 372.238 357.332C 336.163 398.26 271.404 447.048 167.763 447.048C 118.288 447.048 70.033 433.791 27.592 408.625C 32.188 408.941 36.814 409.1 41.42899 409.1C 78.88499 409.1 115.267 398.713 146.642 379.062C 150.144 376.867 151.977 372.775 151.282 368.701C 150.585 364.626 147.499 361.375 143.466 360.467C 111.885 353.363 85.913 330.417 74.858 300.145C 76.559 300.403 78.27 300.618 79.973 300.789C 84.723 301.255 89.175 298.373 90.672 293.835C 92.169 289.296 90.314 284.327 86.21 281.879C 58.15 265.145 40.447 234.883 39.559 202.44C 43.544 204.453 47.68 206.206 51.9 207.668C 56.247 209.173 61.063 207.584 63.658 203.786C 66.255 199.989 65.988 194.925 63.007 191.421C 48.378 174.224 40.322 152.277 40.322 129.622C 40.322 113.854 44.222 98.34303 51.628 84.55302C 99.123 141.395 168.303 177.615 241.965 184.082C 245.041 184.349 248.07 183.216 250.209 180.991C 252.348 178.766 253.364 175.691 252.973 172.631C 252.454 168.566 252.191 164.412 252.191 160.287C 252.191 107.721 294.959 64.95503 347.527 64.95503C 372.252 64.95503 396.579 74.86903 414.268 92.15303C 416.728 94.55603 420.233 95.56103 423.591 94.81803C 442.139 90.73103 459.931 84.01703 476.566 74.83103C 472.517 85.19703 466.713 94.68703 459.263 103.112C 456.257 106.511 455.858 111.488 458.285 115.323C 460.711 119.158 465.382 120.93 469.738 119.667C 475.756 117.927 481.723 115.886 487.557 113.575C 476.151 129.269 462.58 143.088 447.131 154.728z" stroke="none" fill="#000000" fill-rule="nonzero" />
	<g transform="matrix(1.500003 0 0 1.500003 128 0)">
	</g>
    <path transform="matrix(1.500003 0 0 1.500003 128 0)"  d="M89.95 145.834C 87.797 144.229 85.652 142.576 83.573 140.924C 79.164 137.418 72.74699 138.15 69.242 142.56C 65.737 146.969 66.46899 153.385 70.878 156.891C 73.119 158.673 75.432 160.455 77.752 162.185C 79.584 163.551 81.722 164.21 83.843 164.21C 86.953 164.21 90.025 162.792 92.026 160.108C 95.394 155.592 94.465 149.203 89.95 145.834z" stroke="none" fill="#000000" fill-rule="nonzero" />
	<g transform="matrix(1.500003 0 0 1.500003 128 0)">
	</g>
    <path transform="matrix(1.500003 0 0 1.500003 128 0)"  d="M222.328 196.399C 185.613 193.176 149.186 181.799 116.984 163.499C 112.086 160.716 105.861 162.429 103.077 167.327C 100.294 172.225 102.007 178.45 106.905 181.234C 141.635 200.972 180.931 213.243 220.544 216.721C 220.848 216.747 221.149 216.761 221.448 216.761C 226.677 216.761 231.13 212.761 231.596 207.452C 232.088 201.84 227.939 196.892 222.328 196.399z" stroke="none" fill="#000000" fill-rule="nonzero" />
</g>
</svg>