<?xml version="1.0" standalone="no"?>
<!DOCTYPE svg PUBLIC "-//W3C//DTD SVG 1.0//EN" "http://www.w3.org/TR/2001/REC-SVG-20010904/DTD/svg10.dtd">
<svg xmlns="http://www.w3.org/2000/svg" xmlns:xlink="http://www.w3.org/1999/xlink" id="body_1" width="110" height="107">

<g transform="matrix(0.2619048 0 0 0.2547619 0 0)">
	<g transform="matrix(1.000164 0 0 1.000164 0 0)">
	</g>
    <path transform="matrix(1.000164 0 0 1.000164 0 0)"  d="M282.895 352.367C 280.719 351.043 278.823 349.268 277.316 347.117C 276.62 346.125 276.032 345.076 275.545 343.992L275.545 343.992L28.282 343.992L28.282 100.276L363.906 100.276L363.906 259.414C 371.071 260.061 377.083 264.767 379.607 271.211C 381.842 269.986 384.333 269.229 386.951 268.998C 388.722 268.844 390.481 268.954 392.187 269.291L392.187 269.291L392.187 39.561C 392.187 26.565 381.616 15.992 368.621 15.992L368.621 15.992L23.568 15.992C 10.573 15.992 0 26.565 0 39.561L0 39.561L0 348.707C 0 361.703 10.573 372.275 23.568 372.275L23.568 372.275L280.747 372.275C 278.74 368.211 278.264 363.623 279.445 359.209C 280.126 356.67 281.304 354.354 282.895 352.367zM338.025 55.569C 338.025 50.763 341.921 46.866 346.727 46.866L346.727 46.866L355.429 46.866C 360.236 46.866 364.131 50.762 364.131 55.569L364.131 55.569L364.131 65.432C 364.131 70.238 360.235 74.134 355.429 74.134L355.429 74.134L346.727 74.134C 341.92 74.134 338.025 70.23801 338.025 65.43201L338.025 65.43201L338.025 55.569zM297.56 55.569C 297.56 50.763 301.456 46.866 306.262 46.866L306.262 46.866L314.965 46.866C 319.772 46.866 323.667 50.762 323.667 55.569L323.667 55.569L323.667 65.432C 323.667 70.238 319.771 74.134 314.965 74.134L314.965 74.134L306.262 74.134C 301.456 74.134 297.56 70.23801 297.56 65.43201L297.56 65.43201L297.56 55.569zM257.094 55.569C 257.094 50.763 260.991 46.866 265.796 46.866L265.796 46.866L274.498 46.866C 279.305 46.866 283.201 50.762 283.201 55.569L283.201 55.569L283.201 65.432C 283.201 70.238 279.305 74.134 274.498 74.134L274.498 74.134L265.796 74.134C 260.991 74.134 257.094 70.23801 257.094 65.43201L257.094 65.43201L257.094 55.569z" stroke="none" fill="#000000" fill-rule="nonzero" />
	<g transform="matrix(1.000164 0 0 1.000164 0 0)">
	</g>
    <path transform="matrix(1.000164 0 0 1.000164 0 0)"  d="M419.875 335.77L417.26 320.94C 416.907 318.943 415.004 317.609 413.005 317.961L413.005 317.961L399.817 320.285C 398.234 316.57 396.212 313.09 393.812 309.905L393.812 309.905L402.426 299.637C 403.052 298.893 403.357 297.928 403.273 296.957C 403.187 295.986 402.719 295.09 401.973 294.463L401.973 294.463L390.439 284.783C 389.693 284.157 388.726 283.853 387.756 283.938C 386.785 284.023 385.889 284.49 385.263 285.236L385.263 285.236L376.657 295.496C 373.124 293.696 369.345 292.308 365.386 291.392L365.386 291.392L365.386 278C 365.386 275.972 363.741 274.326 361.713 274.326L361.713 274.326L346.653 274.326C 344.626 274.326 342.98 275.972 342.98 278L342.98 278L342.98 291.392C 339.019 292.307 335.244 293.696 331.709 295.496L331.709 295.496L323.101 285.237C 321.797 283.683 319.481 283.481 317.926 284.784L317.926 284.784L306.391 294.463C 305.645 295.09 305.178 295.986 305.092 296.957C 305.008 297.928 305.312 298.894 305.938 299.64L305.938 299.64L314.553 309.906C 312.157 313.09 310.131 316.572 308.548 320.286L308.548 320.286L295.36 317.961C 293.366 317.61 291.459 318.943 291.105 320.94L291.105 320.94L288.491 335.77C 288.322 336.729 288.541 337.715 289.098 338.514C 289.659 339.313 290.508 339.856 291.468 340.025L291.468 340.025L304.666 342.351C 304.881 346.4399 305.593 350.396 306.739 354.163L306.739 354.163L295.139 360.858C 294.295 361.343 293.68 362.147 293.427 363.087C 293.175 364.028 293.308 365.03 293.794 365.874L293.794 365.874L301.323 378.915C 301.808 379.759 302.612 380.374 303.552 380.626C 303.865 380.71 304.184 380.751 304.503 380.751C 305.142 380.751 305.775 380.585 306.339 380.259L306.339 380.259L317.948 373.556C 320.678 376.481 323.76 379.073 327.128 381.265L327.128 381.265L322.5439 393.858C 322.2119 394.774 322.2549 395.784 322.6669 396.667C 323.0789 397.55 323.8239 398.233 324.7389 398.565L324.7389 398.565L338.8869 403.714C 339.2929 403.862 339.7189 403.938 340.1439 403.938C 340.6739 403.938 341.2069 403.823 341.6979 403.593C 342.5809 403.1819 343.2619 402.4359 343.5949 401.52L343.5949 401.52L348.1779 388.927C 350.1429 389.165 352.1429 389.288 354.1719 389.288C 356.2009 389.288 358.2009 389.163 360.1659 388.927L360.1659 388.927L364.7499 401.52C 365.0819 402.4359 365.7659 403.1819 366.6469 403.593C 367.1369 403.822 367.6679 403.938 368.2009 403.938C 368.6249 403.938 369.0509 403.864 369.4569 403.714L369.4569 403.714L383.6069 398.565C 384.5199 398.233 385.2659 397.548 385.6769 396.667C 386.0889 395.784 386.1329 394.774 385.7999 393.858L385.7999 393.858L381.2159 381.267C 384.5809 379.075 387.6629 376.481 390.3959 373.558L390.3959 373.558L402.0049 380.261C 402.5679 380.585 403.2019 380.753 403.8409 380.753C 404.1589 380.753 404.4809 380.71 404.7919 380.628C 405.7329 380.3759 406.5349 379.759 407.0209 378.917L407.0209 378.917L414.5499 365.874C 415.0359 365.032 415.1689 364.028 414.9169 363.087C 414.6639 362.149 414.0489 361.345 413.2049 360.858L413.2049 360.858L401.6069 354.165C 402.7529 350.397 403.4629 346.441 403.6779 342.353L403.6779 342.353L416.8759 340.026C 417.8359 339.857 418.6879 339.314 419.2459 338.515C 419.825 337.715 420.044 336.729 419.875 335.77zM354.184 359.336C 343.029 359.336 333.984 350.291 333.984 339.135C 333.984 327.979 343.03 318.935 354.184 318.935C 365.34 318.935 374.385 327.979 374.385 339.135C 374.385 350.291 365.34 359.336 354.184 359.336z" stroke="none" fill="#000000" fill-rule="nonzero" />
	<g transform="matrix(1.000164 0 0 1.000164 0 0)">
	</g>
    <path transform="matrix(1.000164 0 0 1.000164 0 0)"  d="M164.695 235.373C 164.695 230.621 161.91 226.256 157.599 224.254L157.599 224.254L118.144 205.922L157.6 187.588C 161.91 185.584 164.695 181.22 164.695 176.47L164.695 176.47L164.695 176.151C 164.695 171.941 162.576 168.076 159.03 165.817C 157.068 164.564 154.783 163.901 152.424 163.901C 150.646 163.901 148.861 164.292 147.264 165.034L147.264 165.034L84.186 194.367C 79.87701 196.371 77.094 200.735 77.094 205.484L77.094 205.484L77.094 206.361C 77.094 211.104 79.876 215.465 84.187 217.479L84.187 217.479L147.271 246.815C 148.902 247.57 150.639 247.953 152.433 247.953C 154.771 247.953 157.049 247.289 159.03 246.029C 162.578 243.761 164.696 239.899 164.696 235.694L164.696 235.694L164.695 235.373z" stroke="none" fill="#000000" fill-rule="nonzero" />
	<g transform="matrix(1.000164 0 0 1.000164 0 0)">
	</g>
    <path transform="matrix(1.000164 0 0 1.000164 0 0)"  d="M226.932 134.012C 224.631 130.862 220.93 128.982 217.031 128.982L217.031 128.982L216.717 128.982C 211.363 128.982 206.669 132.407 205.038 137.498L205.038 137.498L163.478 266.27C 162.295 269.988 162.961 274.083 165.259 277.232C 167.56 280.38 171.261 282.261 175.16 282.261L175.16 282.261L175.475 282.261C 180.827 282.261 185.518 278.835 187.147 273.745L187.147 273.745L228.702 144.983C 229.896 141.268 229.234 137.167 226.932 134.012z" stroke="none" fill="#000000" fill-rule="nonzero" />
	<g transform="matrix(1.000164 0 0 1.000164 0 0)">
	</g>
    <path transform="matrix(1.000164 0 0 1.000164 0 0)"  d="M308.001 194.366L244.922 165.033C 243.33 164.293 241.548 163.902 239.77 163.902C 237.412 163.902 235.126 164.563 233.165 165.814C 229.613 168.077 227.494 171.941 227.494 176.151L227.494 176.151L227.494 176.47C 227.494 181.216 230.277 185.581 234.591 187.593L234.591 187.593L274.045 205.923L234.59 224.254C 230.279 226.256 227.494 230.621 227.494 235.373L227.494 235.373L227.494 235.694C 227.494 239.899 229.613 243.76 233.163 246.03C 235.137 247.288 237.417 247.953 239.758 247.953C 241.55 247.953 243.285 247.57 244.927 246.812L244.927 246.812L308.009 217.476C 312.316 215.467 315.097 211.105 315.097 206.362L315.097 206.362L315.097 205.485C 315.094 200.735 312.311 196.371 308.001 194.366z" stroke="none" fill="#000000" fill-rule="nonzero" />
</g>
</svg>