<?xml version="1.0" standalone="no"?>
<!DOCTYPE svg PUBLIC "-//W3C//DTD SVG 1.0//EN" "http://www.w3.org/TR/2001/REC-SVG-20010904/DTD/svg10.dtd">
<svg xmlns="http://www.w3.org/2000/svg" xmlns:xlink="http://www.w3.org/1999/xlink" id="body_1" width="24" height="24">

<g transform="matrix(0.375 0 0 0.375 0 0)">
	<g transform="matrix(1 0 0 1 0 0)">
	</g>
    <path transform="matrix(1 0 0 1 0 0)"  d="M62 5L2 5C 0.896 5 0 5.896 0 7L0 7L0 57C 0 58.104 0.896 59 2 59L2 59L62 59C 63.104 59 64 58.104 64 57L64 57L64 7C 64 5.896 63.104 5 62 5zM60 9L60 17L4 17L4 9L60 9zM4 55L4 21L60 21L60 55L4 55z" stroke="none" fill="#000000" fill-rule="nonzero" />
	<g transform="matrix(1 0 0 1 0 0)">
	</g>
    <path transform="matrix(1 0 0 1 0 0)"  d="M10 15C 10.52 15 11.04 14.79 11.41 14.41C 11.79 14.04 12 13.52 12 13C 12 12.48 11.79 11.96 11.41 11.58C 10.67 10.84 9.33 10.84 8.58 11.59C 8.21 11.96 8 12.47 8 13C 8 13.53 8.21 14.04 8.59 14.42C 8.96 14.79 9.479 15 10 15z" stroke="none" fill="#000000" fill-rule="nonzero" />
	<g transform="matrix(1 0 0 1 0 0)">
	</g>
    <path transform="matrix(1 0 0 1 0 0)"  d="M16 15C 16.52 15 17.04 14.79 17.42 14.41C 17.79 14.04 18 13.52 18 13C 18 12.48 17.79 11.96 17.41 11.58C 16.67 10.84 15.33 10.84 14.58 11.59C 14.21 11.96 14 12.48 14 13C 14 13.52 14.21 14.04 14.59 14.42C 14.96 14.79 15.479 15 16 15z" stroke="none" fill="#000000" fill-rule="nonzero" />
	<g transform="matrix(1 0 0 1 0 0)">
	</g>
    <path transform="matrix(1 0 0 1 0 0)"  d="M22 15C 22.53 15 23.04 14.79 23.41 14.41C 23.79 14.04 24 13.53 24 13C 24 12.48 23.79 11.96 23.41 11.58C 22.67 10.84 21.33 10.84 20.58 11.59C 20.21 11.96 20 12.48 20 13C 20 13.53 20.21 14.04 20.59 14.41C 20.96 14.79 21.479 15 22 15z" stroke="none" fill="#000000" fill-rule="nonzero" />
	<g transform="matrix(1 0 0 1 0 0)">
	</g>
    <path transform="matrix(1 0 0 1 0 0)"  d="M31 25L10 25C 8.896 25 8 25.896 8 27C 8 28.104 8.896 29 10 29L10 29L31 29C 32.104 29 33 28.104 33 27C 33 25.896 32.104 25 31 25z" stroke="none" fill="#000000" fill-rule="nonzero" />
	<g transform="matrix(1 0 0 1 0 0)">
	</g>
    <path transform="matrix(1 0 0 1 0 0)"  d="M31 33L10 33C 8.896 33 8 33.896 8 35C 8 36.104 8.896 37 10 37L10 37L31 37C 32.104 37 33 36.104 33 35C 33 33.896 32.104 33 31 33z" stroke="none" fill="#000000" fill-rule="nonzero" />
	<g transform="matrix(1 0 0 1 0 0)">
	</g>
    <path transform="matrix(1 0 0 1 0 0)"  d="M31 41L10 41C 8.896 41 8 41.896 8 43C 8 44.104 8.896 45 10 45L10 45L31 45C 32.104 45 33 44.104 33 43C 33 41.896 32.104 41 31 41z" stroke="none" fill="#000000" fill-rule="nonzero" />
	<g transform="matrix(1 0 0 1 0 0)">
	</g>
    <path transform="matrix(1 0 0 1 0 0)"  d="M54 25L39 25C 37.896 25 37 25.896 37 27L37 27L37 43C 37 44.104 37.896 45 39 45L39 45L54 45C 55.104 45 56 44.104 56 43L56 43L56 27C 56 25.896 55.104 25 54 25zM52 41L41 41L41 29L52 29L52 41z" stroke="none" fill="#000000" fill-rule="nonzero" />
</g>
</svg>